<svg width="29" height="21" viewBox="0 0 29 21" fill="none" xmlns="http://www.w3.org/2000/svg">
<path d="M10.9539 17.0095C10.9539 18.8708 10.2874 20.3799 8.42605 20.3799H2.52782C-0.842606 20.3799 -0.842606 8.58345 2.52782 8.58345H8.42605C10.2874 8.58345 10.9539 10.0926 10.9539 11.9539V17.0095Z" fill="#378D6E"/>
<path d="M26.9634 18.6947H26.1208V10.2687H26.9634C27.1868 10.2687 27.4012 10.1799 27.5592 10.0219C27.7172 9.86385 27.806 9.64953 27.806 9.42606C27.806 9.20258 27.7172 8.98826 27.5592 8.83024C27.4012 8.67222 27.1868 8.58345 26.9634 8.58345H6.74084C3.37041 8.58345 3.37041 20.3799 6.74084 20.3799H26.9634C27.1868 20.3799 27.4012 20.2912 27.5592 20.1331C27.7172 19.9751 27.806 19.7608 27.806 19.5373C27.806 19.3138 27.7172 19.0995 27.5592 18.9415C27.4012 18.7835 27.1868 18.6947 26.9634 18.6947Z" fill="#3EB489"/>
<path d="M27.1083 18.6947H7.58345C5.89824 18.6947 5.89824 10.2687 7.58345 10.2687H27.1083C28.0385 10.2687 28.0385 18.6947 27.1083 18.6947Z" fill="white"/>
<path d="M8.00475 11.9539H27.6796C27.5658 10.9638 27.3763 10.2687 27.1083 10.2687H7.58345C6.19231 10.2687 5.95048 16.0051 6.85628 18.0105C6.52598 15.5173 6.90852 11.9539 8.00475 11.9539Z" fill="#E9F2F8"/>
<path d="M15.1669 5.21303C15.1669 6.10692 14.8118 6.9642 14.1797 7.59627C13.5476 8.22835 12.6904 8.58345 11.7965 8.58345H3.37042C-4.05312e-06 8.58345 -4.05312e-06 0 3.37042 0H11.7965C12.6904 0 13.5476 0.355097 14.1797 0.987174C14.8118 1.61925 15.1669 3.47653 15.1669 4.37042V5.21303Z" fill="#37628D"/>
<path d="M27.806 6.89824H26.9634V1.68521H27.806C28.0294 1.68521 28.2438 1.59644 28.4018 1.43842C28.5598 1.2804 28.6486 1.06608 28.6486 0.842605C28.6486 0.619132 28.5598 0.404812 28.4018 0.246793C28.2438 0.0887741 28.0294 0 27.806 0H10.9539C7.58345 0 7.58345 8.58345 10.9539 8.58345H27.806C28.0294 8.58345 28.2438 8.49468 28.4018 8.33666C28.5598 8.17864 28.6486 7.96432 28.6486 7.74085C28.6486 7.51737 28.5598 7.30305 28.4018 7.14503C28.2438 6.98701 28.0294 6.89824 27.806 6.89824Z" fill="#3E79B4"/>
<path d="M27.9509 6.89824H11.7965C10.1113 6.89824 10.1113 1.68521 11.7965 1.68521H27.9509C28.8811 1.68521 28.8811 6.89824 27.9509 6.89824Z" fill="white"/>
<path d="M11.7965 3.37042H28.6351C28.5803 2.47558 28.3537 1.68521 27.9509 1.68521H11.7965C10.723 1.68521 10.3362 4.39317 10.6311 5.63433C10.798 4.92738 11.1847 3.37042 11.7965 3.37042Z" fill="#E9F2F8"/>
</svg>
